<mxfile host="app.diagrams.net" agent="Mozilla/5.0 (Windows NT 10.0; Win64; x64) AppleWebKit/537.36 (KHTML, like Gecko) Chrome/127.0.0.0 Safari/537.36" version="24.7.5">
  <diagram name="Seite-1" id="0qBJA2OcskKHXjRreBoT">
    <mxGraphModel dx="2266" dy="877" grid="1" gridSize="10" guides="1" tooltips="1" connect="1" arrows="1" fold="1" page="1" pageScale="1" pageWidth="827" pageHeight="1169" math="0" shadow="0">
      <root>
        <mxCell id="0" />
        <mxCell id="1" parent="0" />
        <mxCell id="yLwDr2I2qwveIQNhpc3Y-3" value="Stage 0" style="swimlane;whiteSpace=wrap;html=1;" vertex="1" parent="1">
          <mxGeometry x="270" y="30" width="200" height="200" as="geometry" />
        </mxCell>
        <mxCell id="yLwDr2I2qwveIQNhpc3Y-4" value="Output" style="rounded=1;whiteSpace=wrap;html=1;" vertex="1" parent="yLwDr2I2qwveIQNhpc3Y-3">
          <mxGeometry x="40" y="80" width="120" height="60" as="geometry" />
        </mxCell>
        <mxCell id="yLwDr2I2qwveIQNhpc3Y-5" value="Stage 1" style="swimlane;whiteSpace=wrap;html=1;" vertex="1" parent="1">
          <mxGeometry x="270" y="330" width="200" height="200" as="geometry" />
        </mxCell>
        <mxCell id="yLwDr2I2qwveIQNhpc3Y-6" value="Local Merge" style="rounded=1;whiteSpace=wrap;html=1;" vertex="1" parent="yLwDr2I2qwveIQNhpc3Y-5">
          <mxGeometry x="40" y="40" width="120" height="60" as="geometry" />
        </mxCell>
        <mxCell id="yLwDr2I2qwveIQNhpc3Y-32" style="edgeStyle=orthogonalEdgeStyle;rounded=0;orthogonalLoop=1;jettySize=auto;html=1;" edge="1" parent="yLwDr2I2qwveIQNhpc3Y-5" source="yLwDr2I2qwveIQNhpc3Y-7" target="yLwDr2I2qwveIQNhpc3Y-6">
          <mxGeometry relative="1" as="geometry" />
        </mxCell>
        <mxCell id="yLwDr2I2qwveIQNhpc3Y-7" value="Partial Sort" style="rounded=1;whiteSpace=wrap;html=1;" vertex="1" parent="yLwDr2I2qwveIQNhpc3Y-5">
          <mxGeometry x="40" y="120" width="120" height="60" as="geometry" />
        </mxCell>
        <mxCell id="yLwDr2I2qwveIQNhpc3Y-8" value="Stage 2" style="swimlane;whiteSpace=wrap;html=1;" vertex="1" parent="1">
          <mxGeometry x="270" y="600" width="200" height="200" as="geometry" />
        </mxCell>
        <mxCell id="yLwDr2I2qwveIQNhpc3Y-9" value="Aggregation" style="rounded=1;whiteSpace=wrap;html=1;" vertex="1" parent="yLwDr2I2qwveIQNhpc3Y-8">
          <mxGeometry x="40" y="40" width="120" height="60" as="geometry" />
        </mxCell>
        <mxCell id="yLwDr2I2qwveIQNhpc3Y-30" style="edgeStyle=orthogonalEdgeStyle;rounded=0;orthogonalLoop=1;jettySize=auto;html=1;" edge="1" parent="yLwDr2I2qwveIQNhpc3Y-8" source="yLwDr2I2qwveIQNhpc3Y-10" target="yLwDr2I2qwveIQNhpc3Y-9">
          <mxGeometry relative="1" as="geometry" />
        </mxCell>
        <mxCell id="yLwDr2I2qwveIQNhpc3Y-10" value="Local Exchange" style="rounded=1;whiteSpace=wrap;html=1;" vertex="1" parent="yLwDr2I2qwveIQNhpc3Y-8">
          <mxGeometry x="40" y="120" width="120" height="60" as="geometry" />
        </mxCell>
        <mxCell id="yLwDr2I2qwveIQNhpc3Y-11" value="Stage 3" style="swimlane;whiteSpace=wrap;html=1;" vertex="1" parent="1">
          <mxGeometry x="270" y="860" width="310" height="300" as="geometry" />
        </mxCell>
        <mxCell id="yLwDr2I2qwveIQNhpc3Y-12" value="Aggregation" style="rounded=1;whiteSpace=wrap;html=1;" vertex="1" parent="yLwDr2I2qwveIQNhpc3Y-11">
          <mxGeometry x="40" y="40" width="120" height="60" as="geometry" />
        </mxCell>
        <mxCell id="yLwDr2I2qwveIQNhpc3Y-28" style="edgeStyle=orthogonalEdgeStyle;rounded=0;orthogonalLoop=1;jettySize=auto;html=1;" edge="1" parent="yLwDr2I2qwveIQNhpc3Y-11" source="yLwDr2I2qwveIQNhpc3Y-13" target="yLwDr2I2qwveIQNhpc3Y-12">
          <mxGeometry relative="1" as="geometry" />
        </mxCell>
        <mxCell id="yLwDr2I2qwveIQNhpc3Y-13" value="Inner Join" style="rounded=1;whiteSpace=wrap;html=1;" vertex="1" parent="yLwDr2I2qwveIQNhpc3Y-11">
          <mxGeometry x="40" y="120" width="120" height="60" as="geometry" />
        </mxCell>
        <mxCell id="yLwDr2I2qwveIQNhpc3Y-26" style="edgeStyle=orthogonalEdgeStyle;rounded=0;orthogonalLoop=1;jettySize=auto;html=1;entryX=0.5;entryY=1;entryDx=0;entryDy=0;" edge="1" parent="yLwDr2I2qwveIQNhpc3Y-11" source="yLwDr2I2qwveIQNhpc3Y-14" target="yLwDr2I2qwveIQNhpc3Y-13">
          <mxGeometry relative="1" as="geometry" />
        </mxCell>
        <mxCell id="yLwDr2I2qwveIQNhpc3Y-14" value="Local Exchange" style="rounded=1;whiteSpace=wrap;html=1;" vertex="1" parent="yLwDr2I2qwveIQNhpc3Y-11">
          <mxGeometry x="160" y="220" width="120" height="60" as="geometry" />
        </mxCell>
        <mxCell id="yLwDr2I2qwveIQNhpc3Y-15" value="Stage 5" style="swimlane;whiteSpace=wrap;html=1;" vertex="1" parent="1">
          <mxGeometry x="560" y="1280" width="190" height="210" as="geometry" />
        </mxCell>
        <mxCell id="yLwDr2I2qwveIQNhpc3Y-16" value="Table Scan" style="rounded=1;whiteSpace=wrap;html=1;" vertex="1" parent="yLwDr2I2qwveIQNhpc3Y-15">
          <mxGeometry x="40" y="40" width="120" height="60" as="geometry" />
        </mxCell>
        <mxCell id="yLwDr2I2qwveIQNhpc3Y-19" value="Stage 4" style="swimlane;whiteSpace=wrap;html=1;" vertex="1" parent="1">
          <mxGeometry x="10" y="1180" width="190" height="210" as="geometry" />
        </mxCell>
        <mxCell id="yLwDr2I2qwveIQNhpc3Y-27" style="edgeStyle=orthogonalEdgeStyle;rounded=0;orthogonalLoop=1;jettySize=auto;html=1;" edge="1" parent="yLwDr2I2qwveIQNhpc3Y-19" source="yLwDr2I2qwveIQNhpc3Y-20">
          <mxGeometry relative="1" as="geometry">
            <mxPoint x="360" y="-140" as="targetPoint" />
          </mxGeometry>
        </mxCell>
        <mxCell id="yLwDr2I2qwveIQNhpc3Y-35" value="&lt;b&gt;&lt;font style=&quot;font-size: 18px;&quot;&gt;6.71GB&lt;/font&gt;&lt;/b&gt;" style="edgeLabel;html=1;align=center;verticalAlign=middle;resizable=0;points=[];" vertex="1" connectable="0" parent="yLwDr2I2qwveIQNhpc3Y-27">
          <mxGeometry x="0.2078" relative="1" as="geometry">
            <mxPoint as="offset" />
          </mxGeometry>
        </mxCell>
        <mxCell id="yLwDr2I2qwveIQNhpc3Y-20" value="Scan Filter" style="rounded=1;whiteSpace=wrap;html=1;" vertex="1" parent="yLwDr2I2qwveIQNhpc3Y-19">
          <mxGeometry x="40" y="40" width="120" height="60" as="geometry" />
        </mxCell>
        <mxCell id="yLwDr2I2qwveIQNhpc3Y-24" style="edgeStyle=orthogonalEdgeStyle;rounded=0;orthogonalLoop=1;jettySize=auto;html=1;entryX=0.5;entryY=1;entryDx=0;entryDy=0;" edge="1" parent="1" source="yLwDr2I2qwveIQNhpc3Y-21" target="yLwDr2I2qwveIQNhpc3Y-20">
          <mxGeometry relative="1" as="geometry" />
        </mxCell>
        <mxCell id="yLwDr2I2qwveIQNhpc3Y-21" value="PartSupp" style="rounded=1;whiteSpace=wrap;html=1;" vertex="1" parent="1">
          <mxGeometry x="50" y="1460" width="120" height="60" as="geometry" />
        </mxCell>
        <mxCell id="yLwDr2I2qwveIQNhpc3Y-23" style="edgeStyle=orthogonalEdgeStyle;rounded=0;orthogonalLoop=1;jettySize=auto;html=1;entryX=0.5;entryY=1;entryDx=0;entryDy=0;" edge="1" parent="1" source="yLwDr2I2qwveIQNhpc3Y-22" target="yLwDr2I2qwveIQNhpc3Y-16">
          <mxGeometry relative="1" as="geometry" />
        </mxCell>
        <mxCell id="yLwDr2I2qwveIQNhpc3Y-22" value="Part" style="rounded=1;whiteSpace=wrap;html=1;" vertex="1" parent="1">
          <mxGeometry x="600" y="1560" width="120" height="60" as="geometry" />
        </mxCell>
        <mxCell id="yLwDr2I2qwveIQNhpc3Y-25" style="edgeStyle=orthogonalEdgeStyle;rounded=0;orthogonalLoop=1;jettySize=auto;html=1;entryX=0.5;entryY=1;entryDx=0;entryDy=0;" edge="1" parent="1" source="yLwDr2I2qwveIQNhpc3Y-16" target="yLwDr2I2qwveIQNhpc3Y-14">
          <mxGeometry relative="1" as="geometry" />
        </mxCell>
        <mxCell id="yLwDr2I2qwveIQNhpc3Y-34" value="&lt;b&gt;&lt;font style=&quot;font-size: 18px;&quot;&gt;9.80GB&lt;/font&gt;&lt;/b&gt;" style="edgeLabel;html=1;align=center;verticalAlign=middle;resizable=0;points=[];" vertex="1" connectable="0" parent="yLwDr2I2qwveIQNhpc3Y-25">
          <mxGeometry x="0.565" y="-2" relative="1" as="geometry">
            <mxPoint as="offset" />
          </mxGeometry>
        </mxCell>
        <mxCell id="yLwDr2I2qwveIQNhpc3Y-29" style="edgeStyle=orthogonalEdgeStyle;rounded=0;orthogonalLoop=1;jettySize=auto;html=1;entryX=0.5;entryY=1;entryDx=0;entryDy=0;" edge="1" parent="1" source="yLwDr2I2qwveIQNhpc3Y-12" target="yLwDr2I2qwveIQNhpc3Y-10">
          <mxGeometry relative="1" as="geometry" />
        </mxCell>
        <mxCell id="yLwDr2I2qwveIQNhpc3Y-36" value="&lt;b&gt;&lt;font style=&quot;font-size: 18px;&quot;&gt;5.03GB&lt;/font&gt;&lt;/b&gt;" style="edgeLabel;html=1;align=center;verticalAlign=middle;resizable=0;points=[];" vertex="1" connectable="0" parent="yLwDr2I2qwveIQNhpc3Y-29">
          <mxGeometry x="0.2567" y="1" relative="1" as="geometry">
            <mxPoint as="offset" />
          </mxGeometry>
        </mxCell>
        <mxCell id="yLwDr2I2qwveIQNhpc3Y-31" style="edgeStyle=orthogonalEdgeStyle;rounded=0;orthogonalLoop=1;jettySize=auto;html=1;" edge="1" parent="1" source="yLwDr2I2qwveIQNhpc3Y-9" target="yLwDr2I2qwveIQNhpc3Y-7">
          <mxGeometry relative="1" as="geometry" />
        </mxCell>
        <mxCell id="yLwDr2I2qwveIQNhpc3Y-39" value="&lt;b&gt;&lt;font style=&quot;font-size: 18px;&quot;&gt;7.80MB&lt;/font&gt;&lt;/b&gt;" style="edgeLabel;html=1;align=center;verticalAlign=middle;resizable=0;points=[];" vertex="1" connectable="0" parent="yLwDr2I2qwveIQNhpc3Y-31">
          <mxGeometry x="0.2062" relative="1" as="geometry">
            <mxPoint as="offset" />
          </mxGeometry>
        </mxCell>
        <mxCell id="yLwDr2I2qwveIQNhpc3Y-33" style="edgeStyle=orthogonalEdgeStyle;rounded=0;orthogonalLoop=1;jettySize=auto;html=1;entryX=0.5;entryY=1;entryDx=0;entryDy=0;" edge="1" parent="1" source="yLwDr2I2qwveIQNhpc3Y-6" target="yLwDr2I2qwveIQNhpc3Y-4">
          <mxGeometry relative="1" as="geometry">
            <mxPoint x="370" y="180" as="targetPoint" />
          </mxGeometry>
        </mxCell>
        <mxCell id="yLwDr2I2qwveIQNhpc3Y-40" value="&lt;b&gt;&lt;font style=&quot;font-size: 18px;&quot;&gt;7.80MB&lt;/font&gt;&lt;/b&gt;" style="edgeLabel;html=1;align=center;verticalAlign=middle;resizable=0;points=[];" vertex="1" connectable="0" parent="yLwDr2I2qwveIQNhpc3Y-33">
          <mxGeometry x="-0.206" relative="1" as="geometry">
            <mxPoint as="offset" />
          </mxGeometry>
        </mxCell>
      </root>
    </mxGraphModel>
  </diagram>
</mxfile>
